<svg xmlns="http://www.w3.org/2000/svg" viewBox="0 0 170.6 36.84"><defs><style>.cls-1{fill:#2bb673;}.cls-1,.cls-2{stroke:#231f20;stroke-miterlimit:10;}.cls-2{fill:none;}.cls-3{font-size:12px;fill:#231f20;font-family:FiraMono-Regular, Fira Mono;}</style></defs><title>Asset 11</title><g id="Layer_2" data-name="Layer 2"><g id="Layer_1-2" data-name="Layer 1"><path class="cls-1" d="M10,17.19H53.25a0,0,0,0,1,0,0v19a0,0,0,0,1,0,0H10A9.5,9.5,0,0,1,.5,26.7v0A9.5,9.5,0,0,1,10,17.19Z"/><rect class="cls-2" x="58.92" y="17.33" width="52.75" height="19.01"/><path class="cls-2" d="M117.34,17.33h43.25a9.5,9.5,0,0,1,9.5,9.5v0a9.5,9.5,0,0,1-9.5,9.5H117.34a0,0,0,0,1,0,0v-19A0,0,0,0,1,117.34,17.33Z"/><text class="cls-3" transform="translate(42.1 10.13)">Intermediate</text></g></g></svg>