<svg id="Layer_1" data-name="Layer 1" xmlns="http://www.w3.org/2000/svg" viewBox="0 0 3895.13 1000"><defs><style>.cls-1{fill:#249abf;}.cls-2{fill:#fff;}</style></defs><title>craigsmith</title><polygon class="cls-1" points="0 250 0 750 450 1000 900 750 900 250 450 0 0 250"/><path class="cls-2" d="M347.58,532.47l96.93,29.3q-9.76,40.77-30.76,68.11a133.51,133.51,0,0,1-52.13,41.26q-31.12,13.92-79.22,13.92-58.35,0-95.34-17t-63.84-59.65q-26.86-42.69-26.86-109.3,0-88.82,47.24-136.51t133.67-47.7q67.62,0,106.32,27.34t57.5,84L343.43,448q-5.13-16.35-10.74-23.93A63.78,63.78,0,0,0,310,404.54a65.42,65.42,0,0,0-30-6.84q-37.6,0-57.62,30.24-15.13,22.44-15.14,70.47,0,59.51,18.07,81.57t50.78,22.07q31.74,0,48-17.82T347.58,532.47Z"/><path class="cls-2" d="M478.93,560.55,584.16,554q3.4,25.63,13.91,39.07,17.08,21.73,48.83,21.73,23.67,0,36.5-11.11t12.82-25.76Q696.22,564,684,553t-56.64-20.75Q554.6,515.89,523.6,488.79q-31.26-27.1-31.25-69.09,0-27.58,16-52.13T556.45,329q32.1-14,88-14,68.59,0,104.61,25.51t42.85,81.18l-104.25,6.1q-4.15-24.17-17.45-35.15t-36.75-11q-19.29,0-29.05,8.18t-9.77,19.9q0,8.55,8.06,15.38,7.81,7.08,37.11,13.18,72.51,15.63,103.88,31.62t45.66,39.67q14.28,23.69,14.28,53a113.49,113.49,0,0,1-19,63.48q-19.07,29-53.26,44t-86.18,15q-91.31,0-126.46-35.16T478.93,560.55Z"/><path class="cls-1" d="M1357.57,689.9c-19.26,9.63-57.78,19.26-107.14,19.26-114.36,0-200.43-72.23-200.43-205.25,0-127,86.07-213.07,211.87-213.07,50.56,0,82.46,10.83,96.3,18.06l-12.64,42.73c-19.86-9.63-48.15-16.85-81.86-16.85-95.1,0-158.3,60.79-158.3,167.33,0,99.31,57.18,163.11,155.9,163.11,31.9,0,64.4-6.62,85.47-16.85Z"/><path class="cls-1" d="M1419.56,502.71c0-34.31-.6-63.8-2.41-90.89h46.35l1.8,57.18h2.41c13.24-39.12,45.14-63.8,80.66-63.8a56.93,56.93,0,0,1,15,1.81V457a79.72,79.72,0,0,0-18.05-1.8c-37.32,0-63.8,28.29-71,68a149.63,149.63,0,0,0-2.4,24.68V703.14h-52.37Z"/><path class="cls-1" d="M1774.68,703.14l-4.21-36.71h-1.81c-16.25,22.87-47.55,43.33-89.08,43.33-59,0-89.08-41.53-89.08-83.66,0-70.42,62.6-109,175.15-108.34v-6c0-24.08-6.62-67.42-66.2-67.42-27.09,0-55.38,8.43-75.84,21.67l-12-34.91c24.07-15.65,59-25.88,95.7-25.88C1796.35,405.2,1818,466,1818,524.38V633.32c0,25.28,1.2,50,4.82,69.82Zm-7.82-148.67c-57.78-1.2-123.39,9-123.39,65.61,0,34.31,22.87,50.56,50,50.56,37.92,0,62-24.08,70.42-48.75a55.5,55.5,0,0,0,3-16.86Z"/><path class="cls-1" d="M1962.47,330c.6,18.06-12.64,32.51-33.71,32.51-18.65,0-31.9-14.45-31.9-32.51,0-18.66,13.85-33.1,33.11-33.1C1949.83,296.86,1962.47,311.3,1962.47,330Zm-59,373.18V411.82h53V703.14Z"/><path class="cls-1" d="M2295.31,411.82c-1.2,21.07-2.4,44.54-2.4,80.05V661c0,66.81-13.24,107.74-41.53,133-28.29,26.48-69.22,34.91-105.94,34.91-34.91,0-73.43-8.43-96.9-24.08l13.24-40.33c19.26,12,49.35,22.88,85.47,22.88,54.17,0,93.89-28.29,93.89-101.72V653.18h-1.2c-16.25,27.09-47.55,48.76-92.69,48.76-72.23,0-124-61.4-124-142.05,0-98.71,64.4-154.69,131.21-154.69,50.56,0,78.25,26.48,90.89,50.56h1.2l2.41-43.94Zm-54.77,115c0-9-.6-16.85-3-24.07-9.63-30.7-35.51-56-74-56-50.56,0-86.67,42.74-86.67,110.15,0,57.18,28.89,104.73,86.07,104.73,32.5,0,62-20.46,73.43-54.17a92.14,92.14,0,0,0,4.21-28.29Z"/><path class="cls-1" d="M2503,639.34c23.47,14.45,57.78,26.48,93.89,26.48,53.57,0,84.87-28.29,84.87-69.22,0-37.92-21.67-59.58-76.44-80.65-66.21-23.47-107.14-57.78-107.14-115,0-63.2,52.36-110.15,131.21-110.15,41.53,0,71.63,9.63,89.69,19.86l-14.45,42.74a161.61,161.61,0,0,0-77-19.26c-55.38,0-76.44,33.1-76.44,60.79,0,37.92,24.68,56.58,80.65,78.25,68.62,26.48,103.53,59.58,103.53,119.17,0,62.6-46.35,116.77-142.05,116.77-39.12,0-81.86-11.44-103.53-25.88Z"/><path class="cls-1" d="M2805.1,490.67c0-30.09-.6-54.77-2.4-78.85H2849l2.41,46.95h1.81c16.25-27.69,43.33-53.57,91.48-53.57,39.73,0,69.82,24.08,82.46,58.39h1.21a119.81,119.81,0,0,1,32.5-37.92c17.46-13.25,36.72-20.47,64.4-20.47,38.53,0,95.71,25.28,95.71,126.4V703.14h-51.77V538.22c0-56-20.46-89.68-63.2-89.68-30.09,0-53.57,22.27-62.59,48.15a87.11,87.11,0,0,0-4.22,26.48v180h-51.76V528.59c0-46.35-20.47-80.05-60.79-80.05-33.11,0-57.18,26.48-65.61,53-3,7.82-4.21,16.85-4.21,25.88V703.14H2805.1Z"/><path class="cls-1" d="M3366.07,330c.6,18.06-12.64,32.51-33.71,32.51-18.65,0-31.9-14.45-31.9-32.51,0-18.66,13.85-33.1,33.11-33.1C3353.43,296.86,3366.07,311.3,3366.07,330Zm-59,373.18V411.82h53V703.14Z"/><path class="cls-1" d="M3511.72,328.16v83.66h75.84v40.33h-75.84V609.24c0,36.12,10.24,56.58,39.73,56.58,13.84,0,24.08-1.8,30.7-3.61l2.4,39.73c-10.23,4.21-26.48,7.22-46.94,7.22-24.68,0-44.54-7.82-57.18-22.27-15-15.65-20.47-41.53-20.47-75.84V452.15h-45.14V411.82H3460V342Z"/><path class="cls-1" d="M3647.15,275.79h53V457.57h1.21a98.25,98.25,0,0,1,37.92-37.32c15.65-9,34.3-15.05,54.17-15.05,39.12,0,101.72,24.08,101.72,124.59V703.14h-53V535.81c0-46.95-17.45-86.67-67.41-86.67-34.31,0-61.39,24.08-71,53-3,7.22-3.61,15-3.61,25.28V703.14h-53Z"/></svg>