<svg id="Layer_1" data-name="Layer 1" xmlns="http://www.w3.org/2000/svg" viewBox="0 0 884.77 222.92"><defs><style>.cls-1,.cls-3{fill:#249abf;}.cls-1{stroke:#fff;stroke-miterlimit:10;stroke-width:2.2px;}.cls-2{fill:#fff;}.cls-3{isolation:isolate;font-size:110px;font-family:Poppins-Medium, Poppins;font-weight:500;}</style></defs><g id="Layer_2" data-name="Layer 2"><g id="Layer_1-2" data-name="Layer 1-2"><polygon class="cls-1" points="1.1 56.36 1.1 166.56 100.28 221.66 199.46 166.56 199.46 56.36 100.28 1.26 1.1 56.36"/><path class="cls-2" d="M77.71,118.62l21.36,6.46a39,39,0,0,1-6.79,15,29.51,29.51,0,0,1-11.48,9.1c-4.56,2-10.4,3.07-17.46,3.07q-12.86,0-21-3.75c-5.45-2.49-10.12-6.88-14.06-13.16s-5.93-14.3-5.93-24.09q0-19.57,10.4-30.08T62.22,70.66q14.91,0,23.43,6T98.32,95.19L76.79,100a18.51,18.51,0,0,0-2.36-5.27,13.92,13.92,0,0,0-5-4.3,14.36,14.36,0,0,0-6.62-1.5,14.31,14.31,0,0,0-12.69,6.66c-2.23,3.31-3.33,8.46-3.33,15.54q0,13.13,4,18C53.42,132.33,57.17,134,62,134s8.17-1.3,10.58-3.92S76.63,123.6,77.71,118.62Z" transform="translate(0 0)"/><path class="cls-2" d="M106.65,124.82l23.19-1.46q.75,5.65,3.06,8.62c2.51,3.19,6.11,4.78,10.76,4.78,3.48,0,6.17-.81,8-2.44a7.41,7.41,0,0,0,2.82-5.69,7.23,7.23,0,0,0-2.69-5.49c-1.78-1.61-6-3.13-12.47-4.58q-16-3.61-22.88-9.59a19.33,19.33,0,0,1-6.9-15.23,20.61,20.61,0,0,1,3.53-11.48,23.36,23.36,0,0,1,10.6-8.51c4.72-2.07,11.17-3.09,19.39-3.09q15.12,0,23.06,5.62t9.43,17.9l-23,1.35c-.62-3.55-1.9-6.13-3.86-7.76s-4.65-2.43-8.09-2.43c-2.84,0-5,.6-6.41,1.81A5.55,5.55,0,0,0,132,91.54a4.39,4.39,0,0,0,1.78,3.39q1.73,1.56,8.18,2.91c10.64,2.29,18.29,4.63,22.9,7s8,5.27,10.07,8.75a22.23,22.23,0,0,1,3.15,11.68,25,25,0,0,1-4.19,14A26.12,26.12,0,0,1,162.28,149c-5,2.2-11.35,3.31-19,3.31q-20.13,0-27.88-7.76C110.22,139.32,107.33,132.77,106.65,124.82Z" transform="translate(0 0)"/><text class="cls-3" transform="translate(228.63 142.45)">Craig Smith</text></g></g></svg>