<?xml version="1.0" encoding="utf-8"?>
<!-- Generator: Adobe Illustrator 24.2.3, SVG Export Plug-In . SVG Version: 6.00 Build 0)  -->
<svg version="1.1" id="Layer_1" xmlns="http://www.w3.org/2000/svg" xmlns:xlink="http://www.w3.org/1999/xlink" x="0px" y="0px"
	 viewBox="0 0 910 1011.4" style="enable-background:new 0 0 910 1011.4;" xml:space="preserve">
<style type="text/css">
	.st0{fill:#249ABF;stroke:#FFFFFF;stroke-width:2.204;stroke-miterlimit:10;}
	.st1{fill:#FFFFFF;}
	.st2{fill:none;}
	.st3{fill:#4A98BB;}
	.st4{font-family:'Poppins-Regular';}
	.st5{font-size:100px;}
</style>
<g>
	<polygon class="st0" points="11.7,285.5 11.7,395.7 110.9,450.8 210.1,395.7 210.1,285.5 110.9,230.4 	"/>
	<g>
		<path class="st1" d="M88.3,347.7l21.4,6.5c-1.4,6-3.7,11-6.8,15c-3.1,4-6.9,7.1-11.5,9.1c-4.6,2-10.4,3.1-17.5,3.1
			c-8.6,0-15.6-1.3-21-3.7c-5.4-2.5-10.1-6.9-14.1-13.2c-3.9-6.3-5.9-14.3-5.9-24.1c0-13,3.5-23.1,10.4-30.1s16.8-10.5,29.5-10.5
			c9.9,0,17.7,2,23.4,6c5.7,4,9.9,10.2,12.7,18.5l-21.5,4.8c-0.7-2.4-1.5-4.2-2.4-5.3c-1.4-1.9-3-3.3-5-4.3c-2-1-4.2-1.5-6.6-1.5
			c-5.5,0-9.8,2.2-12.7,6.7c-2.2,3.3-3.3,8.5-3.3,15.5c0,8.7,1.3,14.7,4,18c2.6,3.2,6.4,4.9,11.2,4.9c4.7,0,8.2-1.3,10.6-3.9
			C85.5,356.5,87.2,352.7,88.3,347.7z"/>
		<path class="st1" d="M117.3,353.9l23.2-1.5c0.5,3.8,1.5,6.6,3.1,8.6c2.5,3.2,6.1,4.8,10.8,4.8c3.5,0,6.2-0.8,8-2.4
			c1.9-1.6,2.8-3.5,2.8-5.7c0-2-0.9-3.9-2.7-5.5c-1.8-1.6-6-3.1-12.5-4.6c-10.7-2.4-18.3-5.6-22.9-9.6c-4.6-4-6.9-9.1-6.9-15.2
			c0-4.1,1.2-7.9,3.5-11.5c2.4-3.6,5.9-6.4,10.6-8.5c4.7-2.1,11.2-3.1,19.4-3.1c10.1,0,17.8,1.9,23.1,5.6c5.3,3.7,8.4,9.7,9.4,17.9
			l-23,1.3c-0.6-3.5-1.9-6.1-3.9-7.8c-2-1.6-4.7-2.4-8.1-2.4c-2.8,0-5,0.6-6.4,1.8c-1.4,1.2-2.2,2.7-2.2,4.4c0,1.3,0.6,2.4,1.8,3.4
			c1.1,1,3.9,2,8.2,2.9c10.6,2.3,18.3,4.6,22.9,7c4.6,2.4,8,5.3,10.1,8.7c2.1,3.5,3.2,7.4,3.2,11.7c0,5-1.4,9.7-4.2,14
			c-2.8,4.3-6.7,7.5-11.7,9.7c-5,2.2-11.4,3.3-19,3.3c-13.4,0-22.7-2.6-27.9-7.8C120.8,368.4,117.9,361.9,117.3,353.9z"/>
	</g>
</g>
<rect x="239.1" y="272.5" class="st2" width="664.7" height="136.2"/>
<text transform="matrix(1 0 0 1 239.0674 357.3645)" class="st3 st4 st5">Craig Smith</text>
</svg>
