<?xml version="1.0" encoding="utf-8"?>
<!-- Generator: Adobe Illustrator 23.0.3, SVG Export Plug-In . SVG Version: 6.00 Build 0)  -->
<svg version="1.1" id="Layer_1" xmlns="http://www.w3.org/2000/svg" xmlns:xlink="http://www.w3.org/1999/xlink" x="0px" y="0px"
	 viewBox="0 0 910 1011.4" style="enable-background:new 0 0 910 1011.4;" xml:space="preserve">
<style type="text/css">
	.st0{fill:#249ABF;stroke:#FFFFFF;stroke-width:10;stroke-miterlimit:10;}
	.st1{fill:#FFFFFF;}
</style>
<polygon class="st0" points="5,255.7 5,755.7 455,1005.7 905,755.7 905,255.7 455,5.7 "/>
<g>
	<path class="st1" d="M352.6,538.2l96.9,29.3c-6.5,27.2-16.8,49.9-30.8,68.1c-14,18.2-31.4,32-52.1,41.3s-47.2,13.9-79.2,13.9
		c-38.9,0-70.7-5.7-95.3-17c-24.7-11.3-45.9-31.2-63.8-59.7c-17.9-28.5-26.9-64.9-26.9-109.3c0-59.2,15.7-104.7,47.2-136.5
		c31.5-31.8,76-47.7,133.7-47.7c45.1,0,80.5,9.1,106.3,27.3c25.8,18.2,45,46.2,57.5,84l-97.7,21.7c-3.4-10.9-7-18.9-10.7-23.9
		c-6.2-8.5-13.8-15-22.7-19.5c-9-4.6-19-6.8-30-6.8c-25.1,0-44.3,10.1-57.6,30.2c-10.1,15-15.1,38.4-15.1,70.5
		c0,39.7,6,66.9,18.1,81.6c12,14.7,29,22.1,50.8,22.1c21.2,0,37.1-5.9,48-17.8C339.8,578.1,347.7,560.8,352.6,538.2z"/>
	<path class="st1" d="M483.9,566.3l105.2-6.6c2.3,17.1,6.9,30.1,13.9,39.1c11.4,14.5,27.7,21.7,48.8,21.7c15.8,0,28-3.7,36.5-11.1
		c8.5-7.4,12.8-16,12.8-25.8c0-9.3-4.1-17.6-12.2-24.9c-8.1-7.3-27-14.2-56.6-20.8c-48.5-10.9-83.1-25.4-103.8-43.5
		c-20.8-18.1-31.3-41.1-31.3-69.1c0-18.4,5.3-35.8,16-52.1c10.7-16.4,26.7-29.2,48.1-38.6c21.4-9.4,50.7-14,88-14
		c45.7,0,80.6,8.5,104.6,25.5c24,17,38.3,44.1,42.8,81.2l-104.2,6.1c-2.8-16.1-8.6-27.8-17.5-35.2c-8.9-7.3-21.1-11-36.7-11
		c-12.9,0-22.5,2.7-29.1,8.2c-6.5,5.5-9.8,12.1-9.8,19.9c0,5.7,2.7,10.8,8.1,15.4c5.2,4.7,17.6,9.1,37.1,13.2
		c48.3,10.4,83,21,103.9,31.6c20.9,10.7,36.1,23.9,45.7,39.7c9.5,15.8,14.3,33.4,14.3,53c0,22.9-6.3,44.1-19,63.5
		c-12.7,19.4-30.4,34.1-53.2,44.1c-22.8,10-51.5,15-86.2,15c-60.9,0-103-11.7-126.5-35.2S487,602.4,483.9,566.3z"/>
</g>
</svg>
